<svg width="100" height="100" viewBox="0 0 100 100" fill="none" xmlns="http://www.w3.org/2000/svg">
<circle opacity="0.15" cx="50" cy="50" r="50" fill="#21AD40"/>
<g filter="url(#filter0_d)">
<rect x="35" y="35" width="30" height="30" rx="8" fill="#DEF3E2" stroke="#21AD40" stroke-width="3"/>
<rect x="41" y="41" width="18" height="18" rx="4" fill="#21AD40"/>
<path d="M49.0877 44.0327C49.4411 43.2453 50.5589 43.2453 50.9123 44.0327L51.9847 46.4221C52.1301 46.746 52.4365 46.9686 52.7895 47.0068L55.3933 47.2883C56.2513 47.3811 56.5968 48.4443 55.9571 49.0237L54.0161 50.7819C53.7529 51.0203 53.6359 51.3805 53.7087 51.728L54.2456 54.2914C54.4225 55.1361 53.5181 55.7932 52.7694 55.3639L50.4974 54.0612C50.1893 53.8846 49.8107 53.8846 49.5026 54.0612L47.2306 55.3639C46.4819 55.7932 45.5775 55.1361 45.7544 54.2914L46.2913 51.728C46.3641 51.3805 46.2471 51.0203 45.9839 50.7819L44.0429 49.0237C43.4032 48.4443 43.7487 47.3811 44.6067 47.2883L47.2105 47.0068C47.5635 46.9686 47.8699 46.746 48.0153 46.4221L49.0877 44.0327Z" fill="white"/>
<rect x="29" y="29" width="5" height="5" rx="1" fill="#21AD40"/>
<rect opacity="0.35" x="65" y="66" width="5" height="5" rx="1" fill="#21AD40"/>
<path opacity="0.35" fill-rule="evenodd" clip-rule="evenodd" d="M45 30C45 29.4477 45.4477 29 46 29H47C47.5523 29 48 29.4477 48 30V35C48 35.5523 47.5523 36 47 36H46C45.4477 36 45 35.5523 45 35V30ZM51 30C51 29.4477 51.4477 29 52 29H53C53.5523 29 54 29.4477 54 30V35C54 35.5523 53.5523 36 53 36H52C51.4477 36 51 35.5523 51 35V30ZM45 65C45 64.4477 45.4477 64 46 64H47C47.5523 64 48 64.4477 48 65V70C48 70.5523 47.5523 71 47 71H46C45.4477 71 45 70.5523 45 70V65ZM51 65C51 64.4477 51.4477 64 52 64H53C53.5523 64 54 64.4477 54 65V70C54 70.5523 53.5523 71 53 71H52C51.4477 71 51 70.5523 51 70V65Z" fill="#21AD40"/>
<path opacity="0.35" fill-rule="evenodd" clip-rule="evenodd" d="M69.5 45.5C70.0523 45.5 70.5 45.9477 70.5 46.5L70.5 47.5C70.5 48.0523 70.0523 48.5 69.5 48.5L64.5 48.5C63.9477 48.5 63.5 48.0523 63.5 47.5L63.5 46.5C63.5 45.9477 63.9477 45.5 64.5 45.5L69.5 45.5ZM69.5 51.5C70.0523 51.5 70.5 51.9477 70.5 52.5L70.5 53.5C70.5 54.0523 70.0523 54.5 69.5 54.5L64.5 54.5C63.9477 54.5 63.5 54.0523 63.5 53.5L63.5 52.5C63.5 51.9477 63.9477 51.5 64.5 51.5L69.5 51.5ZM34.5 45.5C35.0523 45.5 35.5 45.9477 35.5 46.5L35.5 47.5C35.5 48.0523 35.0523 48.5 34.5 48.5L29.5 48.5C28.9477 48.5 28.5 48.0523 28.5 47.5L28.5 46.5C28.5 45.9477 28.9477 45.5 29.5 45.5L34.5 45.5ZM34.5 51.5C35.0523 51.5 35.5 51.9477 35.5 52.5L35.5 53.5C35.5 54.0523 35.0523 54.5 34.5 54.5L29.5 54.5C28.9477 54.5 28.5 54.0523 28.5 53.5L28.5 52.5C28.5 51.9477 28.9477 51.5 29.5 51.5L34.5 51.5Z" fill="#21AD40"/>
</g>
<defs>
<filter id="filter0_d" x="18.5" y="29" width="62" height="62" filterUnits="userSpaceOnUse" color-interpolation-filters="sRGB">
<feFlood flood-opacity="0" result="BackgroundImageFix"/>
<feColorMatrix in="SourceAlpha" type="matrix" values="0 0 0 0 0 0 0 0 0 0 0 0 0 0 0 0 0 0 127 0"/>
<feOffset dy="10"/>
<feGaussianBlur stdDeviation="5"/>
<feColorMatrix type="matrix" values="0 0 0 0 0.00784722 0 0 0 0 0.470833 0 0 0 0 0.110366 0 0 0 0.15 0"/>
<feBlend mode="normal" in2="BackgroundImageFix" result="effect1_dropShadow"/>
<feBlend mode="normal" in="SourceGraphic" in2="effect1_dropShadow" result="shape"/>
</filter>
</defs>
</svg>
