<svg width="100" height="100" viewBox="0 0 100 100" fill="none" xmlns="http://www.w3.org/2000/svg">
<circle opacity="0.15" cx="50" cy="50" r="50" fill="#3875EF"/>
<g filter="url(#filter0_d)">
<rect x="47" y="37" width="20" height="36" rx="4" fill="#E1EAFD" stroke="#3875EF" stroke-width="3"/>
<path opacity="0.35" fill-rule="evenodd" clip-rule="evenodd" d="M51 42C50.4477 42 50 42.4477 50 43V45C50 45.5523 50.4477 46 51 46H53C53.5523 46 54 45.5523 54 45V43C54 42.4477 53.5523 42 53 42H51ZM54 68C53.4477 68 53 68.4477 53 69C53 69.5523 53.4477 70 54 70H60C60.5523 70 61 69.5523 61 69C61 68.4477 60.5523 68 60 68H54ZM50 48C50 47.4477 50.4477 47 51 47H53C53.5523 47 54 47.4477 54 48V50C54 50.5523 53.5523 51 53 51H51C50.4477 51 50 50.5523 50 50V48ZM51 52C50.4477 52 50 52.4477 50 53V55C50 55.5523 50.4477 56 51 56H53C53.5523 56 54 55.5523 54 55V53C54 52.4477 53.5523 52 53 52H51ZM50 58C50 57.4477 50.4477 57 51 57H53C53.5523 57 54 57.4477 54 58V60C54 60.5523 53.5523 61 53 61H51C50.4477 61 50 60.5523 50 60V58ZM56 42C55.4477 42 55 42.4477 55 43V45C55 45.5523 55.4477 46 56 46H58C58.5523 46 59 45.5523 59 45V43C59 42.4477 58.5523 42 58 42H56ZM55 48C55 47.4477 55.4477 47 56 47H58C58.5523 47 59 47.4477 59 48V50C59 50.5523 58.5523 51 58 51H56C55.4477 51 55 50.5523 55 50V48ZM56 52C55.4477 52 55 52.4477 55 53V55C55 55.5523 55.4477 56 56 56H58C58.5523 56 59 55.5523 59 55V53C59 52.4477 58.5523 52 58 52H56ZM55 58C55 57.4477 55.4477 57 56 57H58C58.5523 57 59 57.4477 59 58V60C59 60.5523 58.5523 61 58 61H56C55.4477 61 55 60.5523 55 60V58ZM61 42C60.4477 42 60 42.4477 60 43V45C60 45.5523 60.4477 46 61 46H63C63.5523 46 64 45.5523 64 45V43C64 42.4477 63.5523 42 63 42H61ZM60 48C60 47.4477 60.4477 47 61 47H63C63.5523 47 64 47.4477 64 48V50C64 50.5523 63.5523 51 63 51H61C60.4477 51 60 50.5523 60 50V48ZM61 52C60.4477 52 60 52.4477 60 53V55C60 55.5523 60.4477 56 61 56H63C63.5523 56 64 55.5523 64 55V53C64 52.4477 63.5523 52 63 52H61Z" fill="#3875EF"/>
<rect x="60" y="57" width="4" height="4" rx="1" fill="#3875EF"/>
<circle cx="41" cy="39" r="12" fill="#3875EF"/>
<path d="M40.0877 33.0327C40.4411 32.2453 41.5589 32.2453 41.9123 33.0327L42.9847 35.4221C43.1301 35.746 43.4365 35.9686 43.7895 36.0068L46.3933 36.2883C47.2513 36.3811 47.5968 37.4443 46.9571 38.0237L45.0161 39.7819C44.7529 40.0203 44.6359 40.3805 44.7087 40.728L45.2456 43.2914C45.4225 44.1361 44.5181 44.7932 43.7694 44.3639L41.4974 43.0612C41.1893 42.8846 40.8107 42.8846 40.5026 43.0612L38.2306 44.3639C37.4819 44.7932 36.5775 44.1361 36.7544 43.2914L37.2913 40.728C37.3641 40.3805 37.2471 40.0203 36.9839 39.7819L35.0429 38.0237C34.4032 37.4443 34.7487 36.3811 35.6067 36.2883L38.2105 36.0068C38.5635 35.9686 38.8699 35.746 39.0153 35.4221L40.0877 33.0327Z" fill="white"/>
</g>
<defs>
<filter id="filter0_d" x="19" y="27" width="59.5" height="67.5" filterUnits="userSpaceOnUse" color-interpolation-filters="sRGB">
<feFlood flood-opacity="0" result="BackgroundImageFix"/>
<feColorMatrix in="SourceAlpha" type="matrix" values="0 0 0 0 0 0 0 0 0 0 0 0 0 0 0 0 0 0 127 0"/>
<feOffset dy="10"/>
<feGaussianBlur stdDeviation="5"/>
<feColorMatrix type="matrix" values="0 0 0 0 0.00784722 0 0 0 0 0.109704 0 0 0 0 0.470833 0 0 0 0.15 0"/>
<feBlend mode="normal" in2="BackgroundImageFix" result="effect1_dropShadow"/>
<feBlend mode="normal" in="SourceGraphic" in2="effect1_dropShadow" result="shape"/>
</filter>
</defs>
</svg>
