<svg width="147" height="46" viewBox="0 0 147 46" fill="none" xmlns="http://www.w3.org/2000/svg">
<path d="M23.6035 45.9998C31.3545 45.9998 37.6379 39.7069 37.6379 31.9442C37.6379 24.1816 31.3545 17.8887 23.6035 17.8887C15.8524 17.8887 9.56897 24.1816 9.56897 31.9442C9.56897 39.7069 15.8524 45.9998 23.6035 45.9998Z" fill="#05D7E4"/>
<path d="M59.9655 28.1111C67.7165 28.1111 74 21.8182 74 14.0556C74 6.29289 67.7165 0 59.9655 0C52.2145 0 45.931 6.29289 45.931 14.0556C45.931 21.8182 52.2145 28.1111 59.9655 28.1111Z" fill="#FFD029"/>
<path d="M12.7586 35.7776H0L14.0345 7.6665H26.7931L12.7586 35.7776Z" fill="white"/>
<path opacity="0.35" fill-rule="evenodd" clip-rule="evenodd" d="M10.0973 35.778H12.7586L21.6201 18.0283C14.8083 18.9933 9.56897 24.8562 9.56897 31.9446C9.56897 33.2736 9.75312 34.5594 10.0973 35.778Z" fill="#56F5FF"/>
<path d="M41.4655 35.7776H28.7069L42.7414 7.6665H55.5L41.4655 35.7776Z" fill="white"/>
<path opacity="0.35" fill-rule="evenodd" clip-rule="evenodd" d="M47.4613 7.6665C46.4829 9.58334 45.931 11.7548 45.931 14.0554C45.931 16.9881 46.8279 19.7111 48.3619 21.9642L55.5 7.6665H47.4613Z" fill="#FFD029"/>
<path d="M84.694 28.1121C85.462 28.2921 86.068 28.6641 86.512 29.2281C86.968 29.7921 87.196 30.4461 87.196 31.1901C87.196 32.2821 86.83 33.1341 86.098 33.7461C85.378 34.3581 84.34 34.6641 82.984 34.6641H77.062V21.9381H82.84C84.136 21.9381 85.138 22.2201 85.846 22.7841C86.554 23.3481 86.908 24.1521 86.908 25.1961C86.908 25.9641 86.704 26.6061 86.296 27.1221C85.888 27.6261 85.354 27.9561 84.694 28.1121ZM80.14 27.1401H82.156C83.224 27.1401 83.758 26.6841 83.758 25.7721C83.758 24.8601 83.212 24.4041 82.12 24.4041H80.14V27.1401ZM82.336 32.1621C83.476 32.1621 84.046 31.6941 84.046 30.7581C84.046 30.3021 83.896 29.9481 83.596 29.6961C83.296 29.4321 82.87 29.3001 82.318 29.3001H80.14V32.1621H82.336ZM88.5338 21.7941C88.5338 21.3261 88.7018 20.9421 89.0378 20.6421C89.3738 20.3301 89.8178 20.1741 90.3698 20.1741C90.9218 20.1741 91.3658 20.3301 91.7018 20.6421C92.0378 20.9421 92.2058 21.3261 92.2058 21.7941C92.2058 22.2501 92.0378 22.6341 91.7018 22.9461C91.3658 23.2461 90.9218 23.3961 90.3698 23.3961C89.8178 23.3961 89.3738 23.2461 89.0378 22.9461C88.7018 22.6341 88.5338 22.2501 88.5338 21.7941ZM91.8998 24.6201V34.6641H88.8218V24.6201H91.8998ZM99.7129 32.0181V34.6641H98.3269C97.1509 34.6641 96.2329 34.3761 95.5729 33.8001C94.9249 33.2121 94.6009 32.2461 94.6009 30.9021V27.2121H93.2509V24.6201H94.6009V22.1541H97.6789V24.6201H99.6949V27.2121H97.6789V30.9561C97.6789 31.3521 97.7569 31.6281 97.9129 31.7841C98.0809 31.9401 98.3569 32.0181 98.7409 32.0181H99.7129ZM103.333 29.5521V34.6641H101.695V21.9741H105.727C107.179 21.9741 108.265 22.3161 108.985 23.0001C109.705 23.6721 110.065 24.5961 110.065 25.7721C110.065 26.9601 109.693 27.8901 108.949 28.5621C108.205 29.2221 107.131 29.5521 105.727 29.5521H103.333ZM105.583 28.1841C106.579 28.1841 107.293 27.9741 107.725 27.5541C108.169 27.1341 108.391 26.5401 108.391 25.7721C108.391 24.9801 108.169 24.3801 107.725 23.9721C107.293 23.5521 106.579 23.3421 105.583 23.3421H103.333V28.1841H105.583ZM113.616 26.7801C113.94 26.0961 114.414 25.5681 115.038 25.1961C115.662 24.8121 116.406 24.6201 117.27 24.6201V26.4021H116.766C115.842 26.4021 115.086 26.6421 114.498 27.1221C113.91 27.5901 113.616 28.3701 113.616 29.4621V34.6641H111.978V24.7821H113.616V26.7801ZM123.368 24.6561C124.316 24.6561 125.162 24.8601 125.906 25.2681C126.662 25.6761 127.25 26.2641 127.67 27.0321C128.102 27.8001 128.318 28.7001 128.318 29.7321C128.318 30.7641 128.102 31.6641 127.67 32.4321C127.25 33.1881 126.662 33.7701 125.906 34.1781C125.162 34.5861 124.316 34.7901 123.368 34.7901C122.42 34.7901 121.568 34.5861 120.812 34.1781C120.068 33.7701 119.48 33.1881 119.048 32.4321C118.616 31.6641 118.4 30.7641 118.4 29.7321C118.4 28.7001 118.616 27.8001 119.048 27.0321C119.48 26.2641 120.068 25.6761 120.812 25.2681C121.568 24.8601 122.42 24.6561 123.368 24.6561ZM123.368 26.0961C122.78 26.0961 122.234 26.2281 121.73 26.4921C121.238 26.7561 120.836 27.1641 120.524 27.7161C120.224 28.2561 120.074 28.9281 120.074 29.7321C120.074 30.5241 120.224 31.1961 120.524 31.7481C120.836 32.2881 121.238 32.6901 121.73 32.9541C122.234 33.2181 122.78 33.3501 123.368 33.3501C123.956 33.3501 124.496 33.2181 124.988 32.9541C125.492 32.6901 125.894 32.2881 126.194 31.7481C126.506 31.1961 126.662 30.5241 126.662 29.7321C126.662 28.9281 126.506 28.2561 126.194 27.7161C125.894 27.1641 125.492 26.7561 124.988 26.4921C124.496 26.2281 123.956 26.0961 123.368 26.0961ZM134.827 22.4421C133.951 22.4301 133.339 22.5801 132.991 22.8921C132.655 23.2041 132.487 23.7441 132.487 24.5121V24.7821H134.827V26.2221H132.487V34.6641H130.849V26.2221H129.427V24.7821H130.849V24.3861C130.849 22.0221 132.175 20.8941 134.827 21.0021V22.4421ZM136.317 21.8841C136.317 21.5841 136.419 21.3441 136.623 21.1641C136.827 20.9721 137.097 20.8761 137.433 20.8761C137.769 20.8761 138.039 20.9721 138.243 21.1641C138.447 21.3441 138.549 21.5841 138.549 21.8841C138.549 22.1841 138.447 22.4301 138.243 22.6221C138.039 22.8021 137.769 22.8921 137.433 22.8921C137.097 22.8921 136.827 22.8021 136.623 22.6221C136.419 22.4301 136.317 22.1841 136.317 21.8841ZM138.243 24.7821V34.6641H136.605V24.7821H138.243ZM145.593 33.2241V34.6641H144.369C143.361 34.6641 142.605 34.4241 142.101 33.9441C141.609 33.4641 141.363 32.6601 141.363 31.5321V26.2041H139.887V24.7821H141.363V22.3161H143.019V24.7821H145.575V26.2041H143.019V31.5681C143.019 32.2041 143.133 32.6421 143.361 32.8821C143.601 33.1101 144.009 33.2241 144.585 33.2241H145.593Z" fill="white"/>
</svg>
