<svg width="49" height="60" viewBox="0 0 49 60" fill="none" xmlns="http://www.w3.org/2000/svg">
<circle opacity="0.15" cx="24" cy="24" r="24" fill="#DA6E21"/>
<g filter="url(#filter0_d)">
<circle cx="21" cy="20" r="4" fill="#F9E9DE" stroke="#DA6E21" stroke-width="3"/>
<circle cx="31" cy="15" r="8" fill="#DA6E21"/>
<path fill-rule="evenodd" clip-rule="evenodd" d="M31 11C30.4477 11 30 11.4477 30 12V14H28C27.4477 14 27 14.4477 27 15C27 15.5523 27.4477 16 28 16H30V18C30 18.5523 30.4477 19 31 19C31.5523 19 32 18.5523 32 18V16H34C34.5523 16 35 15.5523 35 15C35 14.4477 34.5523 14 34 14H32V12C32 11.4477 31.5523 11 31 11Z" fill="white"/>
<path d="M21 28C16.8588 28 13.3056 30.5172 11.7869 34.105C10.9258 36.1394 12.7909 38 15 38H27C29.2091 38 31.0742 36.1394 30.2131 34.105C28.6944 30.5172 25.1412 28 21 28Z" fill="#F9E9DE" stroke="#DA6E21" stroke-width="3"/>
</g>
<defs>
<filter id="filter0_d" x="0.0715942" y="7" width="48.9284" height="52.5" filterUnits="userSpaceOnUse" color-interpolation-filters="sRGB">
<feFlood flood-opacity="0" result="BackgroundImageFix"/>
<feColorMatrix in="SourceAlpha" type="matrix" values="0 0 0 0 0 0 0 0 0 0 0 0 0 0 0 0 0 0 127 0"/>
<feOffset dy="10"/>
<feGaussianBlur stdDeviation="5"/>
<feColorMatrix type="matrix" values="0 0 0 0 0.470833 0 0 0 0 0.174522 0 0 0 0 0.00784722 0 0 0 0.15 0"/>
<feBlend mode="normal" in2="BackgroundImageFix" result="effect1_dropShadow"/>
<feBlend mode="normal" in="SourceGraphic" in2="effect1_dropShadow" result="shape"/>
</filter>
</defs>
</svg>
